<?xml version="1.0" standalone="no"?>
<!DOCTYPE svg PUBLIC "-//W3C//DTD SVG 20010904//EN"
 "http://www.w3.org/TR/2001/REC-SVG-20010904/DTD/svg10.dtd">
<svg version="1.0" xmlns="http://www.w3.org/2000/svg"
 width="130.000000pt" height="130.000000pt" viewBox="0 0 130.000000 130.000000"
 preserveAspectRatio="xMidYMid meet">

<g transform="translate(0.000000,130.000000) scale(0.100000,-0.100000)"
fill="#000000" stroke="none">
<path d="M231 1216 c-6 -7 -22 -44 -35 -82 l-23 -69 478 0 c264 0 479 0 479 1
0 16 -54 150 -63 156 -6 4 -195 8 -418 8 -332 0 -409 -3 -418 -14z"/>
<path d="M167 963 c-4 -3 -7 -26 -7 -50 l0 -43 61 0 61 0 -3 -77 -4 -78 377
-3 377 -2 -2 77 -2 78 58 3 57 3 0 49 0 50 -483 0 c-266 0 -487 -3 -490 -7z
m43 -48 c0 -8 -2 -15 -4 -15 -2 0 -6 7 -10 15 -3 8 -1 15 4 15 6 0 10 -7 10
-15z"/>
<path d="M160 530 c0 -96 4 -181 9 -188 17 -27 94 -32 513 -32 375 0 428 2
442 16 13 12 16 40 16 142 0 70 3 151 7 180 l6 53 -27 -11 c-41 -15 -938 -14
-954 2 -9 9 -12 -27 -12 -162z m477 41 c5 5 24 6 42 3 29 -6 31 -8 15 -17 -13
-7 -19 -7 -22 1 -2 7 -8 12 -13 12 -6 0 -7 -4 -4 -10 3 -5 -8 -9 -28 -8 -20 1
-34 6 -34 14 0 9 5 10 17 4 10 -6 21 -5 27 1z"/>
</g>
</svg>
